# xmcd CD database file
#
# Track frame offsets:
#	150
#	14772
#	27914
#	43683
#	60837
#	80851
#	90774
#	105909
#	119354
#	135149
#	150341
#	163468
#	178283
#
# Disc length: 2572 seconds
#
# Revision: 1
# Processed by: cddbd v1.5.2PL0 Copyright (c) Steve Scherf et al.
# Submitted via: CDex 1.51
#
DISCID=990a0a0d
DTITLE=Ray Stevens - The Collection [CD 2)
DYEAR=2003
DGENRE=Country
TTITLE0=Just One Of Life's little Tragedies
TTITLE1=Misty
TTITLE2=Everything Is Beautiful
TTITLE3=Young Love
TTITLE4=Sunday Mornin' Coming Down
TTITLE5=Turn Your Radio On
TTITLE6=Mr. Businessman
TTITLE7=All My Trials
TTITLE8=Indian Love Call
TTITLE9=Love Theme From Romeo and Juliet (A Time For Us)
TTITLE10=Raindrops Keep Falling On My Head
TTITLE11=Everybody Needs A Rainbow
TTITLE12=Deep Purple
EXTD=Madacy Entertainment YEAR: 2003
EXTT0=
EXTT1=
EXTT2=
EXTT3=
EXTT4=
EXTT5=
EXTT6=
EXTT7=
EXTT8=
EXTT9=
EXTT10=
EXTT11=
EXTT12=
PLAYORDER=
